<svg width="72" height="90" viewBox="0 0 72 90" fill="none" xmlns="http://www.w3.org/2000/svg">
<g clip-path="url(#clip0_49_538)">
<path d="M71.974 35.7241C71.8888 43.2575 69.7458 49.9171 66.426 56.2412C61.4938 65.6423 54.7441 73.6414 47.068 80.8768C43.9159 83.8511 40.526 86.5776 37.2188 89.3891C36.2549 90.2053 35.7441 90.1953 34.7978 89.4517C24.3276 81.2373 15.0543 71.9039 7.96902 60.5575C4.33877 54.7441 1.53723 48.5702 0.480701 41.7253C-1.19422 30.8596 1.50218 21.143 8.54986 12.7284C14.2706 5.90353 21.6212 1.70246 30.4214 0.438133C43.1699 -1.39201 54.0606 2.50362 62.7657 12.0174C68.9446 18.7771 71.8538 26.9014 71.974 35.7241ZM8.97797 35.8843C8.95544 50.7658 20.9953 62.9234 35.7892 62.966C39.3491 62.9834 42.8773 62.2978 46.1716 60.9483C49.4658 59.5989 52.4611 57.6122 54.9857 55.1023C57.5102 52.5924 59.5143 49.6087 60.8829 46.3224C62.2515 43.0361 62.9577 39.5118 62.9609 35.9519C62.986 21.1806 50.8985 9.01052 36.1447 8.97046C21.1556 8.9304 9.01303 20.9703 8.97797 35.8843Z" fill="#396C03"/>
<path d="M41.9681 43.4653C41.9681 41.4975 41.9456 39.5271 41.9831 37.5593C42.0054 37.3029 41.9553 37.0454 41.8384 36.8162C41.7216 36.5869 41.5427 36.395 41.3222 36.2624C36.688 32.9226 36.1047 25.7097 40.1079 21.6263C42.8744 18.8022 46.9428 18.7571 49.7218 21.5211C53.8378 25.607 53.2845 32.9251 48.5827 36.2924C48.375 36.4173 48.2063 36.5975 48.0953 36.8128C47.9843 37.0282 47.9354 37.2702 47.9543 37.5117C47.9776 41.4791 47.9776 45.4473 47.9543 49.4164C47.9736 50.0632 47.7797 50.6985 47.4023 51.2242C47.025 51.7499 46.4852 52.1369 45.8663 52.3256C45.2688 52.5355 44.6182 52.5385 44.0189 52.3342C43.4196 52.1299 42.9063 51.7301 42.5615 51.199C42.2133 50.6158 42.0163 49.9549 41.9882 49.2762C41.9206 47.3409 41.9681 45.4031 41.9681 43.4653Z" fill="#396C03"/>
<path d="M23.9746 37.5267C21.6913 37.2513 20.1466 36.1522 19.5858 33.899C19.5179 33.6263 19.4835 33.3463 19.4831 33.0653C19.4831 29.0996 19.4456 25.1338 19.5132 21.1681C19.5422 20.8727 19.6325 20.5866 19.7782 20.3279C19.9239 20.0693 20.1218 19.8439 20.3594 19.6659C21.3283 19.0325 22.4524 19.8537 22.4674 21.1406C22.49 23.2661 22.4674 25.3967 22.4674 27.5123V28.4035H25.4718V22.0469C25.4718 21.7039 25.4568 21.3584 25.4718 21.0154C25.5244 20.1141 26.1052 19.5132 26.9189 19.4782C27.1249 19.468 27.3308 19.5013 27.5232 19.5758C27.7156 19.6504 27.8902 19.7646 28.0356 19.9109C28.181 20.0573 28.294 20.2326 28.3673 20.4254C28.4406 20.6183 28.4726 20.8244 28.4611 21.0304C28.4886 23.2461 28.4611 25.4643 28.4611 27.6825V28.4086H31.4654V26.9665C31.4654 25.0312 31.4654 23.0934 31.4654 21.1581C31.4654 20.1316 32.0863 19.4832 32.9676 19.4907C33.8489 19.4982 34.4422 20.1266 34.4472 21.088C34.4623 25.1163 34.4823 29.1446 34.4472 33.1729C34.4193 34.1313 34.0781 35.0542 33.4758 35.8002C32.8735 36.5463 32.0434 37.0745 31.1124 37.3039C30.7569 37.3965 30.3939 37.4566 29.9733 37.5543V43.9134C29.9733 45.7561 29.9933 47.6013 29.9733 49.4414C29.9849 49.8414 29.9161 50.2397 29.771 50.6127C29.6259 50.9856 29.4075 51.3257 29.1286 51.6127C28.8498 51.8997 28.5162 52.1279 28.1476 52.2837C27.779 52.4395 27.3829 52.5198 26.9827 52.5198C26.5825 52.5198 26.1864 52.4395 25.8178 52.2837C25.4492 52.1279 25.1156 51.8997 24.8368 51.6127C24.558 51.3257 24.3395 50.9856 24.1944 50.6127C24.0494 50.2397 23.9806 49.8414 23.9921 49.4414C23.9696 45.8187 23.9921 42.1935 23.9921 38.5707L23.9746 37.5267Z" fill="#396C03"/>
</g>
<defs>
<clipPath id="clip0_49_538">
<rect width="71.974" height="90" fill="white"/>
</clipPath>
</defs>
</svg>
